<?xml version="1.0" standalone="no"?><!-- Generator: Gravit.io --><svg xmlns="http://www.w3.org/2000/svg" xmlns:xlink="http://www.w3.org/1999/xlink" style="isolation:isolate" viewBox="0 0 450 450" width="450" height="450"><defs><clipPath id="_clipPath_FmaP93CthJOKz6bzDRjMmrnH2CBRvdjK"><rect width="450" height="450"/></clipPath></defs><g clip-path="url(#_clipPath_FmaP93CthJOKz6bzDRjMmrnH2CBRvdjK)"><path d=" M 207.289 44.774 C 156.645 44.774 116.527 88.71 116.527 88.71 L 108.576 97.202 L 120.154 98.44 C 120.154 98.44 122.671 98.696 125.6 100.998 C 128.536 103.3 131.802 107.316 131.802 117.302 C 131.802 130.334 134.924 141.656 136.807 147.417 C 133.765 150.145 132.019 154.032 132 158.117 C 132 161.477 132.924 164.145 133.668 166.79 C 134.04 168.115 134.406 169.341 134.645 170.254 C 134.877 171.166 134.906 172.079 134.906 171.196 C 134.954 178.399 140.781 184.226 147.984 184.274 L 151.065 184.274 C 151.635 188.215 152.326 192.132 153.332 195.899 L 68.063 195.899 C 52.078 195.899 39 208.977 39 224.961 L 39 376.086 C 39 392.071 52.078 405.149 68.063 405.149 L 148.461 405.149 C 149.088 405.252 149.729 405.252 150.356 405.149 L 287.961 405.149 C 288.588 405.252 289.229 405.252 289.856 405.149 L 381.938 405.149 C 397.922 405.149 411 392.071 411 376.086 L 411 224.961 C 411 208.977 397.922 195.899 381.938 195.899 L 273.418 195.899 C 274.424 192.132 275.115 188.215 275.685 184.274 L 278.766 184.274 C 285.969 184.226 291.796 178.399 291.844 171.196 C 291.844 172.079 291.867 171.166 292.105 170.254 C 292.338 169.341 292.71 168.115 293.082 166.79 C 293.826 164.145 294.75 161.477 294.75 158.117 C 294.75 153.758 292.733 149.864 289.641 147.19 C 291.326 140.023 294.942 123.115 294.942 109.519 C 294.942 91.89 287.112 79.294 277.231 71.837 C 268.199 65.019 258.009 62.449 249.558 62.008 C 248.32 60.258 247.07 57.846 241.711 54.196 C 234.62 49.371 223.402 44.774 207.289 44.774 Z  M 207.289 56.399 C 221.239 56.399 229.9 60.217 235.172 63.81 C 240.444 67.402 242.007 70.325 242.007 70.325 L 243.687 73.232 L 247.047 73.232 C 253.26 73.232 262.822 75.522 270.227 81.113 C 277.638 86.705 283.317 95.168 283.317 109.519 C 283.317 122.039 279.655 138.332 278.376 143.801 C 277.986 143.921 277.624 144.119 277.313 144.382 L 277.313 141.778 C 277.313 124.951 270.396 113.501 263.426 106.758 C 256.469 100.016 249.134 97.528 249.134 97.528 L 245.797 96.406 L 243.257 98.836 C 243.257 98.836 240.38 101.695 233.126 105.009 C 225.878 108.322 214.636 111.751 198.844 111.751 C 190.119 111.751 178.919 114.745 168.973 121.435 C 161.173 126.689 155.355 135.321 152.297 145.696 C 151.647 145.315 150.984 144.956 150.309 144.621 C 149.889 144.412 149.459 144.226 149.019 144.063 C 148.636 143.916 148.241 143.801 147.839 143.72 C 146.206 138.657 143.433 128.549 143.433 117.308 C 143.433 104.462 138.272 96.174 132.785 91.867 C 132.192 91.402 132.145 91.715 131.558 91.332 C 139.888 83.322 169.34 56.399 207.295 56.399 L 207.289 56.399 Z  M 247.262 109.757 C 248.581 110.281 251.15 111.054 255.341 115.117 C 260.491 120.098 265.688 128.02 265.688 141.778 L 265.688 164.953 L 274.645 159.21 C 276.441 158.053 278.353 156.856 279.818 156.007 C 280.149 155.816 280.323 155.734 280.591 155.583 C 281.939 155.851 283.125 156.664 283.125 158.117 C 283.125 158.269 282.596 161.128 281.887 163.639 C 281.538 164.889 281.172 166.139 280.864 167.324 C 280.556 168.504 280.219 169.301 280.219 171.196 C 280.219 172.062 279.632 172.649 278.766 172.649 L 265.844 172.649 L 265.554 178.153 C 265.218 184.269 263.802 190.277 261.369 195.899 L 165.381 195.899 C 162.95 190.277 161.536 184.269 161.202 178.153 L 160.911 172.649 L 147.984 172.649 C 147.593 172.671 147.21 172.525 146.933 172.247 C 146.655 171.97 146.509 171.587 146.531 171.196 C 146.531 169.301 146.194 168.504 145.886 167.324 C 145.578 166.144 145.218 164.883 144.863 163.633 C 144.356 161.817 143.942 159.976 143.625 158.117 C 143.625 156.664 144.811 155.851 146.159 155.583 C 146.45 155.746 146.63 155.833 146.985 156.042 C 148.49 156.914 150.443 158.129 152.251 159.286 L 160.621 164.645 L 161.185 154.723 C 161.824 143.749 167.695 136.315 175.472 131.078 C 183.243 125.841 193.025 123.376 198.844 123.376 C 216.328 123.376 229.301 119.528 237.956 115.582 C 243.984 112.826 245.326 111.304 247.262 109.757 Z  M 187.219 155.211 C 182.404 155.211 178.5 159.115 178.5 163.93 C 178.5 168.745 182.404 172.649 187.219 172.649 C 192.034 172.649 195.938 168.745 195.938 163.93 C 195.938 159.115 192.034 155.211 187.219 155.211 Z  M 239.531 155.211 C 234.716 155.211 230.813 159.115 230.813 163.93 C 230.813 168.745 234.716 172.649 239.531 172.649 C 244.346 172.649 248.25 168.745 248.25 163.93 C 248.25 159.115 244.346 155.211 239.531 155.211 Z  M 68.063 207.524 L 381.938 207.524 C 391.633 207.524 399.375 215.266 399.375 224.961 L 399.375 376.086 C 399.375 385.781 391.633 393.524 381.938 393.524 L 293.64 393.524 C 292.036 389.304 288.868 385.793 285.34 382.933 C 280.3 378.835 274.104 375.61 268.018 372.942 C 261.603 370.129 254.997 367.773 248.25 365.891 L 248.25 351.703 C 256.904 344.449 262.662 334.326 264.473 323.181 C 270.111 322.39 274.883 318.066 274.883 312.149 C 274.883 313.195 274.877 312.451 275.063 311.753 C 275.255 311.056 275.545 310.068 275.859 309.004 C 276.487 306.871 277.312 304.761 277.312 301.68 C 277.312 299.477 276.673 297.478 275.644 295.723 C 275.935 293.374 277.312 282.121 277.312 271.461 C 277.312 258.778 271.558 249.449 264.356 244.009 C 258.003 239.213 251.011 237.417 244.96 236.981 C 243.838 235.488 243.251 234.157 239.77 231.785 C 234.596 228.263 226.453 224.961 214.985 224.961 C 178.948 224.961 151.007 255.86 151.007 255.86 L 143.055 264.364 L 154.622 265.614 C 154.622 265.614 155.843 265.718 157.47 266.997 C 159.104 268.276 161.062 270.392 161.062 276.844 C 161.062 287.416 162.289 293.078 162.707 294.845 C 161.643 296.689 161.076 298.778 161.063 300.907 C 161.063 303.988 161.888 306.086 162.516 308.219 C 162.83 309.289 163.12 310.271 163.312 310.969 C 163.498 311.666 163.492 312.41 163.492 311.364 C 163.492 317.235 168.218 321.513 173.798 322.35 C 175.443 333.815 181.256 344.271 190.125 351.72 L 190.125 365.903 C 185.876 367.094 178.977 369.181 170.363 372.947 C 164.271 375.615 158.075 378.841 153.041 382.939 C 149.507 385.805 146.339 389.31 144.735 393.529 L 68.063 393.529 C 58.367 393.529 50.625 385.787 50.625 376.092 L 50.625 224.961 C 50.625 215.266 58.367 207.524 68.063 207.524 Z  M 341.25 224.961 C 338.04 224.961 335.438 227.563 335.438 230.774 C 335.438 233.984 338.04 236.586 341.25 236.586 C 344.46 236.586 347.063 233.984 347.063 230.774 C 347.063 227.563 344.46 224.961 341.25 224.961 Z  M 214.985 236.586 C 224.285 236.586 229.865 239.097 233.231 241.387 C 236.59 243.677 237.398 245.293 237.398 245.293 L 239.078 248.211 L 242.438 248.211 C 246.326 248.211 252.621 249.711 257.352 253.285 C 262.09 256.86 265.688 262.062 265.688 271.461 C 265.688 276.658 265.269 282.621 264.839 287.376 C 263.665 277.919 259.794 270.746 255.434 266.521 C 250.29 261.539 244.774 259.656 244.774 259.656 L 241.438 258.528 L 238.898 260.958 C 238.898 260.958 237.154 262.731 232.289 264.957 C 227.424 267.183 219.815 269.52 209.016 269.52 C 203.046 269.52 195.856 271.351 189.067 275.367 C 184.127 278.297 179.976 283.057 176.89 288.736 C 176.413 288.492 176.251 288.114 174.141 288.114 C 173.867 288.114 173.606 288.178 173.333 288.195 C 172.879 284.429 172.663 280.637 172.688 276.844 C 172.688 268.235 169.293 262.423 165.492 258.953 C 172.6 252.396 191.049 236.586 214.985 236.586 Z  M 341.25 248.211 C 338.04 248.211 335.438 250.813 335.438 254.024 C 335.438 257.234 338.04 259.836 341.25 259.836 C 344.46 259.836 347.063 257.234 347.063 254.024 C 347.063 250.813 344.46 248.211 341.25 248.211 Z  M 67.97 271.38 C 64.764 271.431 62.205 274.068 62.25 277.274 L 62.25 323.774 C 62.25 326.984 64.852 329.586 68.063 329.586 C 71.273 329.586 73.875 326.984 73.875 323.774 L 73.875 277.274 C 73.897 275.702 73.282 274.188 72.169 273.077 C 71.056 271.967 69.541 271.354 67.97 271.38 Z  M 341.25 271.461 C 338.04 271.461 335.438 274.063 335.438 277.274 C 335.438 280.484 338.04 283.086 341.25 283.086 C 344.46 283.086 347.063 280.484 347.063 277.274 C 347.063 274.063 344.46 271.461 341.25 271.461 Z  M 242.914 271.903 C 243.984 272.385 245.007 272.589 247.355 274.867 C 250.685 278.093 254.063 283.109 254.063 292.282 L 254.063 307.028 L 262.816 301.895 C 263.426 301.541 264.042 301.198 264.665 300.867 C 265.147 301.07 265.688 301.273 265.688 301.68 C 265.688 301.413 265.298 303.732 264.711 305.726 C 264.42 306.714 264.112 307.72 263.851 308.696 C 263.583 309.673 263.258 310.294 263.258 312.149 C 263.258 312.079 263.345 312.149 263.02 312.149 L 254.254 312.149 L 253.969 317.653 C 253.131 333.811 241.269 347.26 225.343 350.11 L 223.692 350.407 L 222.448 351.54 C 221.569 352.376 220.401 352.84 219.188 352.836 C 217.976 352.839 216.81 352.375 215.932 351.54 L 214.694 350.407 L 213.02 350.116 C 196.844 347.223 184.896 333.409 184.365 316.985 L 184.19 311.364 L 175.355 311.364 C 175.024 311.364 175.117 311.306 175.117 311.364 C 175.117 309.51 174.792 308.899 174.524 307.923 C 174.263 306.952 173.955 305.935 173.664 304.941 C 173.083 302.947 172.688 300.64 172.688 300.907 C 172.688 300.5 173.234 300.297 173.711 300.094 C 174.431 300.483 175.303 300.965 176.285 301.558 L 183.016 305.569 L 184.905 297.955 C 186.295 292.328 190.137 288.248 194.996 285.37 C 199.849 282.493 205.691 281.145 209.016 281.145 C 221.513 281.145 230.865 278.401 237.125 275.536 C 240.816 273.85 241.275 273.135 242.914 271.903 Z  M 376.125 288.899 C 369.705 288.899 364.5 294.103 364.5 300.524 C 364.5 306.944 369.705 312.149 376.125 312.149 C 382.545 312.149 387.75 306.944 387.75 300.524 C 387.75 294.103 382.545 288.899 376.125 288.899 Z  M 341.25 294.711 C 338.04 294.711 335.438 297.313 335.438 300.524 C 335.438 303.734 338.04 306.336 341.25 306.336 C 344.46 306.336 347.063 303.734 347.063 300.524 C 347.063 297.313 344.46 294.711 341.25 294.711 Z  M 201.75 300.524 C 198.54 300.524 195.938 303.126 195.938 306.336 C 195.938 309.546 198.54 312.149 201.75 312.149 C 204.96 312.149 207.563 309.546 207.563 306.336 C 207.563 303.126 204.96 300.524 201.75 300.524 Z  M 236.625 300.524 C 233.415 300.524 230.813 303.126 230.813 306.336 C 230.813 309.546 233.415 312.149 236.625 312.149 C 239.835 312.149 242.438 309.546 242.438 306.336 C 242.438 303.126 239.835 300.524 236.625 300.524 Z  M 341.25 317.961 C 338.04 317.961 335.438 320.563 335.438 323.774 C 335.438 326.984 338.04 329.586 341.25 329.586 C 344.46 329.586 347.063 326.984 347.063 323.774 C 347.063 320.563 344.46 317.961 341.25 317.961 Z  M 341.25 341.211 C 338.04 341.211 335.438 343.813 335.438 347.024 C 335.438 350.234 338.04 352.836 341.25 352.836 C 344.46 352.836 347.063 350.234 347.063 347.024 C 347.063 343.813 344.46 341.211 341.25 341.211 Z  M 68.074 341.519 C 64.866 341.513 62.26 344.106 62.25 347.314 C 62.247 348.856 62.856 350.335 63.944 351.428 C 65.032 352.52 66.509 353.135 68.051 353.138 C 71.259 353.145 73.865 350.551 73.875 347.343 C 73.878 345.802 73.269 344.322 72.181 343.23 C 71.093 342.138 69.616 341.522 68.074 341.519 Z  M 236.625 358.742 L 236.625 368.344 C 236.375 368.797 235.986 369.727 233.719 371.541 C 230.969 373.744 226.616 376.086 219.188 376.086 C 211.759 376.086 207.406 373.744 204.656 371.547 C 202.389 369.727 202 368.797 201.75 368.344 L 201.75 358.753 C 204.249 359.782 206.824 360.66 209.539 361.235 C 212.242 363.211 215.566 364.461 219.188 364.461 C 222.809 364.461 226.128 363.2 228.825 361.235 C 231.497 360.647 234.108 359.81 236.625 358.736 L 236.625 358.742 Z  M 341.25 364.461 C 338.04 364.461 335.438 367.063 335.438 370.274 C 335.438 373.484 338.04 376.086 341.25 376.086 C 344.46 376.086 347.063 373.484 347.063 370.274 C 347.063 367.063 344.46 364.461 341.25 364.461 Z  M 193.688 376.97 C 194.688 378.144 195.845 379.393 197.391 380.632 C 201.907 384.235 209.178 387.711 219.188 387.711 C 229.197 387.711 236.468 384.241 240.984 380.626 C 242.531 379.393 243.687 378.144 244.687 376.97 C 248.448 378.022 255.179 380.01 263.363 383.59 C 268.896 386.008 274.325 388.955 278.01 391.948 C 278.673 392.489 279.19 393.006 279.719 393.524 L 158.656 393.524 C 159.179 393.006 159.702 392.489 160.371 391.948 C 164.05 388.955 169.479 386.008 175.018 383.59 C 181.076 380.942 187.315 378.73 193.688 376.97 L 193.688 376.97 Z " fill="rgb(0,0,0)"/></g></svg>